<svg width="18" height="21" viewBox="0 0 18 21" fill="none" xmlns="http://www.w3.org/2000/svg">
<path d="M9 0C11.3869 0 13.6761 0.948211 15.364 2.63604C17.0518 4.32387 18 6.61305 18 9C18 13.311 13.3545 18.024 10.74 20.337C9.735 21.222 8.265 21.222 7.26 20.337C4.647 18.024 0 13.311 0 9C0 6.61305 0.948211 4.32387 2.63604 2.63604C4.32387 0.948211 6.61305 0 9 0ZM9 1.5C7.01088 1.5 5.10322 2.29018 3.6967 3.6967C2.29018 5.10322 1.5 7.01088 1.5 9C1.5 10.662 2.421 12.5925 3.855 14.5245C5.2545 16.4115 6.9855 18.09 8.256 19.2135C8.691 19.5975 9.309 19.5975 9.744 19.2135C11.0145 18.09 12.744 16.413 14.1465 14.5245C15.579 12.5925 16.5 10.662 16.5 9C16.5 7.01088 15.7098 5.10322 14.3033 3.6967C12.8968 2.29018 10.9891 1.5 9 1.5ZM9 5.625C9.44321 5.625 9.88208 5.7123 10.2916 5.88191C10.701 6.05152 11.0731 6.30012 11.3865 6.61351C11.6999 6.92691 11.9485 7.29897 12.1181 7.70844C12.2877 8.11792 12.375 8.55679 12.375 9C12.375 9.44321 12.2877 9.88208 12.1181 10.2916C11.9485 10.701 11.6999 11.0731 11.3865 11.3865C11.0731 11.6999 10.701 11.9485 10.2916 12.1181C9.88208 12.2877 9.44321 12.375 9 12.375C8.10489 12.375 7.24645 12.0194 6.61351 11.3865C5.98058 10.7535 5.625 9.89511 5.625 9C5.625 8.10489 5.98058 7.24645 6.61351 6.61351C7.24645 5.98058 8.10489 5.625 9 5.625ZM9 7.125C8.50272 7.125 8.02581 7.32254 7.67417 7.67417C7.32254 8.02581 7.125 8.50272 7.125 9C7.125 9.49728 7.32254 9.97419 7.67417 10.3258C8.02581 10.6775 8.50272 10.875 9 10.875C9.49728 10.875 9.97419 10.6775 10.3258 10.3258C10.6775 9.97419 10.875 9.49728 10.875 9C10.875 8.50272 10.6775 8.02581 10.3258 7.67417C9.97419 7.32254 9.49728 7.125 9 7.125Z" fill="#155DFC"/>
</svg>
