<svg width="22" height="22" viewBox="0 0 22 22" fill="none" xmlns="http://www.w3.org/2000/svg">
<path fill-rule="evenodd" clip-rule="evenodd" d="M10.9998 15.5833C11.2429 15.5833 11.476 15.4867 11.6479 15.3148L18.0646 8.89809C18.2315 8.72521 18.3239 8.49366 18.3218 8.25331C18.3198 8.01296 18.2233 7.78305 18.0534 7.61309C17.8834 7.44314 17.6535 7.34673 17.4132 7.34464C17.1728 7.34255 16.9413 7.43495 16.7684 7.60193L10.9998 13.3705L5.23122 7.60193C5.05833 7.43495 4.82678 7.34255 4.58644 7.34464C4.34609 7.34673 4.11618 7.44314 3.94622 7.61309C3.77626 7.78305 3.67986 8.01296 3.67777 8.25331C3.67568 8.49366 3.76808 8.72521 3.93505 8.89809L10.3517 15.3148C10.5236 15.4867 10.7567 15.5833 10.9998 15.5833V15.5833Z" fill="#3157D1"/>
</svg>
